<svg xmlns="http://www.w3.org/2000/svg" width="92.34" height="32" viewBox="0 0 92.34 32">
  <defs>
    <style>
      .cls-1 {
        fill: #fff;
        fill-opacity: 0.99;
        fill-rule: evenodd;
      }
    </style>
  </defs>
  <path id="Вход" class="cls-1" d="M970,23h60.33a16,16,0,1,1,0,32H970A16,16,0,1,1,970,23Zm3,9.969v-0.96a3,3,0,0,1,3-3h11.059a3,3,0,0,1,3,3V44.986a3,3,0,0,1-3,3H976a3,3,0,0,1-3-3V44h2v2h13V31H975v1.968h-2Zm-3,8.046h6.029v2.743l7.027-5.3-7.027-5.3V35.9H970v5.114Z" transform="translate(-954 -23)"/>
</svg>
